<svg width="72.000000" height="72.000000" viewBox="0 0 72 72" fill="none" xmlns="http://www.w3.org/2000/svg" xmlns:xlink="http://www.w3.org/1999/xlink">
	<desc>
			Created with Pixso.
	</desc>
	<defs>
		<clipPath id="clip2986_9375">
			<rect id="uil:arrow-growth" width="72.000000" height="72.000000" fill="white" fill-opacity="0"/>
		</clipPath>
	</defs>
	<rect id="uil:arrow-growth" width="72.000000" height="72.000000" fill="#FFFFFF" fill-opacity="0"/>
	<g clip-path="url(#clip2986_9375)">
		<path id="Vector" d="M65.7598 19.8599C65.4554 19.127 64.8728 18.5444 64.1398 18.2402C63.7792 18.0864 63.3918 18.0049 62.9998 18L47.9998 18C47.2042 18 46.4412 18.3159 45.8785 18.8789C45.3159 19.4414 44.9998 20.2046 44.9998 21C44.9998 21.7954 45.3159 22.5586 45.8785 23.1211C46.4412 23.6841 47.2042 24 47.9998 24L55.7698 24L38.9998 40.77L29.1298 30.8701C28.851 30.5889 28.5192 30.3657 28.1536 30.2134C27.788 30.061 27.3959 29.9824 26.9998 29.9824C26.6038 29.9824 26.2117 30.061 25.8461 30.2134C25.4805 30.3657 25.1487 30.5889 24.8699 30.8701L6.86987 48.8701C6.58862 49.1489 6.36548 49.4805 6.21313 49.8462C6.06079 50.2119 5.98242 50.604 5.98242 51C5.98242 51.396 6.06079 51.7881 6.21313 52.1538C6.36548 52.5195 6.58862 52.8511 6.86987 53.1299C7.14868 53.4111 7.48047 53.6343 7.84607 53.7866C8.21167 53.939 8.60376 54.0176 8.99976 54.0176C9.39587 54.0176 9.78796 53.939 10.1536 53.7866C10.5192 53.6343 10.851 53.4111 11.1298 53.1299L26.9998 37.23L36.8699 47.1299C37.1487 47.4111 37.4805 47.6343 37.8461 47.7866C38.2117 47.939 38.6038 48.0176 38.9998 48.0176C39.3959 48.0176 39.788 47.939 40.1536 47.7866C40.5192 47.6343 40.851 47.4111 41.1298 47.1299L59.9998 28.23L59.9998 36C59.9998 36.7954 60.3159 37.5586 60.8785 38.1211C61.4412 38.6841 62.2042 39 62.9998 39C63.7954 39 64.5585 38.6841 65.1211 38.1211C65.6837 37.5586 65.9998 36.7954 65.9998 36L65.9998 21C65.9951 20.6079 65.9136 20.2207 65.7598 19.8599Z" fill="#23A6F0" fill-opacity="1.000000" fill-rule="nonzero"/>
	</g>
</svg>
