<svg width="72.000000" height="72.000000" viewBox="0 0 72 72" fill="none" xmlns="http://www.w3.org/2000/svg" xmlns:xlink="http://www.w3.org/1999/xlink">
	<desc>
			Created with Pixso.
	</desc>
	<defs>
		<clipPath id="clip2986_9354">
			<rect id="bx:bxs-book-reader" width="72.000000" height="72.000000" fill="white" fill-opacity="0"/>
		</clipPath>
	</defs>
	<rect id="bx:bxs-book-reader" width="72.000000" height="72.000000" fill="#FFFFFF" fill-opacity="0"/>
	<g clip-path="url(#clip2986_9354)">
		<path id="Vector" d="M6 24L6 58.5869C6 58.5869 19.863 58.0708 36 66C52.137 58.0708 66 58.5869 66 58.5869L66 24C66 24 49.6379 24 36 31.4131C22.3621 24 6 24 6 24Z" fill="#23A6F0" fill-opacity="1.000000" fill-rule="nonzero"/>
		<path id="Vector" d="M45 15C45 19.9707 40.9706 24 36 24C31.0294 24 27 19.9707 27 15C27 10.0293 31.0294 6 36 6C40.9706 6 45 10.0293 45 15Z" fill="#23A6F0" fill-opacity="1.000000" fill-rule="evenodd"/>
	</g>
</svg>
