<svg width="22.000000" height="18.000000" viewBox="0 0 22 18" fill="none" xmlns="http://www.w3.org/2000/svg" xmlns:xlink="http://www.w3.org/1999/xlink">
	<desc>
			Created with Pixso.
	</desc>
	<defs/>
	<path id="Vector" d="M6.91077 18C15.213 18 19.7546 11.0732 19.7546 5.07715C19.7546 4.88281 19.7546 4.68652 19.7463 4.49219C20.6306 3.84766 21.3937 3.0498 22 2.13574C21.1741 2.50293 20.2988 2.74414 19.4026 2.85352C20.3466 2.28516 21.0536 1.39062 21.3922 0.337891C20.5054 0.866211 19.5347 1.23828 18.5226 1.43555C17.8423 0.706055 16.9419 0.222656 15.9611 0.0605469C14.9803 -0.102539 13.9738 0.0664062 13.0973 0.538086C12.2209 1.00977 11.5236 1.75977 11.1134 2.67188C10.7031 3.58301 10.6029 4.60547 10.8281 5.58105C9.03345 5.49023 7.27759 5.02051 5.67468 4.20312C4.07178 3.38477 2.65747 2.23633 1.52356 0.833008C0.947876 1.83398 0.772217 3.01855 1.0321 4.14551C1.29211 5.27246 1.96826 6.25684 2.92322 6.90039C2.20764 6.87598 1.50769 6.68262 0.880005 6.33496L0.880005 6.39746C0.881226 7.44629 1.24207 8.46289 1.90149 9.27441C2.56091 10.0859 3.47839 10.6436 4.49902 10.8525C4.11157 10.9609 3.71143 11.0137 3.30957 11.0127C3.02637 11.0127 2.74365 10.9863 2.46533 10.9336C2.75378 11.8359 3.31555 12.625 4.07166 13.1904C4.82788 13.7559 5.74084 14.0693 6.6825 14.0859C5.08276 15.3516 3.10669 16.0371 1.07251 16.0342C0.714111 16.0352 0.355835 16.0146 0 15.9717C2.06458 17.2969 4.46228 18.001 6.91077 18Z" fill="#23A6F0" fill-opacity="1.000000" fill-rule="nonzero"/>
</svg>
