<svg width="23.000000" height="23.000000" viewBox="0 0 23 23" fill="none" xmlns="http://www.w3.org/2000/svg" xmlns:xlink="http://www.w3.org/1999/xlink">
	<desc>
			Created with Pixso.
	</desc>
	<defs/>
	<path id="Vector" d="M23 11.5703C23 5.17969 17.8516 0 11.5015 0C5.14844 0.000976562 0 5.17969 0 11.5723C0 17.3457 4.20557 22.1318 9.7019 23L9.7019 14.915L6.78418 14.915L6.78418 11.5723L9.70483 11.5723L9.70483 9.02051C9.70483 6.12109 11.4224 4.52051 14.0483 4.52051C15.3075 4.52051 16.6226 4.74609 16.6226 4.74609L16.6226 7.5918L15.1724 7.5918C13.7451 7.5918 13.2996 8.48438 13.2996 9.40039L13.2996 11.5703L16.4875 11.5703L15.9786 14.9141L13.2981 14.9141L13.2981 22.999C18.7944 22.1309 23 17.3438 23 11.5703Z" fill="#23A6F0" fill-opacity="1.000000" fill-rule="evenodd"/>
</svg>
