<svg width="22.000000" height="22.000000" viewBox="0 0 22 22" fill="none" xmlns="http://www.w3.org/2000/svg" xmlns:xlink="http://www.w3.org/1999/xlink">
	<desc>
			Created with Pixso.
	</desc>
	<defs/>
	<path id="Vector" d="M11 0C8.01489 0 7.63953 0.0136719 6.46667 0.0664062C5.2937 0.121094 4.49487 0.305664 3.79504 0.577148C3.06091 0.853516 2.39587 1.28711 1.84668 1.84668C1.28711 2.39648 0.854004 3.06152 0.577515 3.79492C0.305298 4.49316 0.119629 5.29395 0.06604 6.46289C0.0137939 7.6377 0 8.01172 0 11.001C0 13.9883 0.0137939 14.3623 0.06604 15.5352C0.120972 16.7061 0.305298 17.5049 0.577515 18.2051C0.859375 18.9287 1.23474 19.541 1.84668 20.1533C2.45715 20.7656 3.07043 21.1416 3.79358 21.4229C4.49487 21.6943 5.29236 21.8809 6.46387 21.9336C7.63818 21.9863 8.01208 22 11 22C13.9879 22 14.3605 21.9863 15.5348 21.9336C16.7048 21.8789 17.5065 21.6943 18.2064 21.4229C18.9401 21.1465 19.6045 20.7129 20.1533 20.1533C20.7653 19.541 21.1406 18.9287 21.4225 18.2051C21.6934 17.5049 21.879 16.7061 21.934 15.5352C21.9862 14.3623 22 13.9883 22 11C22 8.01172 21.9862 7.6377 21.934 6.46387C21.879 5.29395 21.6934 4.49316 21.4225 3.79492C21.146 3.06152 20.7129 2.39648 20.1533 1.84668C19.6042 1.28613 18.9392 0.853516 18.205 0.577148C17.5038 0.305664 16.7035 0.119141 15.5333 0.0664062C14.3591 0.0136719 13.9865 0 10.9972 0L11.0013 0L11 0ZM10.0142 1.98242L11.0013 1.98242C13.9384 1.98242 14.2863 1.99219 15.4454 2.0459C16.5178 2.09375 17.1008 2.27441 17.4886 2.42383C18.0015 2.62305 18.3687 2.8623 18.7537 3.24805C19.1387 3.63281 19.3765 3.99805 19.5759 4.5127C19.7272 4.89941 19.9059 5.48242 19.954 6.55469C20.0076 7.71387 20.0187 8.06152 20.0187 10.9971C20.0187 13.9326 20.0076 14.2822 19.954 15.4414C19.9059 16.5137 19.7257 17.0957 19.5759 17.4834C19.3995 17.9609 19.118 18.3926 18.7522 18.7471C18.3673 19.1318 18.0015 19.3691 17.4873 19.5693C17.1023 19.7207 16.5193 19.8994 15.4454 19.9482C14.2863 20.001 13.9384 20.0127 11.0013 20.0127C8.06433 20.0127 7.71509 20.001 6.55603 19.9482C5.48352 19.8994 4.90186 19.7207 4.51416 19.5693C4.03625 19.3926 3.604 19.1123 3.24915 18.7471C2.88306 18.3916 2.60107 17.96 2.42407 17.4814C2.27429 17.0957 2.09412 16.5127 2.04602 15.4395C1.99377 14.2803 1.98279 13.9326 1.98279 10.9941C1.98279 8.05762 1.99377 7.71094 2.04602 6.55176C2.09546 5.47949 2.27429 4.89648 2.42554 4.50879C2.62488 3.99609 2.86414 3.62891 3.24915 3.24316C3.63416 2.8584 3.99988 2.62109 4.51416 2.4209C4.90186 2.27051 5.48352 2.0918 6.55603 2.04199C7.5708 1.99512 7.96399 1.98145 10.0142 1.98047L10.0142 1.98242ZM16.8727 3.80859C16.6992 3.80859 16.5276 3.84277 16.3674 3.90918C16.2073 3.97559 16.0618 4.07324 15.9392 4.19531C15.8167 4.31836 15.7195 4.46387 15.6531 4.62402C15.5868 4.78418 15.5526 4.95508 15.5526 5.12891C15.5526 5.30176 15.5868 5.47363 15.6531 5.63379C15.7195 5.79395 15.8167 5.93945 15.9392 6.0625C16.0618 6.18457 16.2073 6.28223 16.3674 6.34863C16.5276 6.41504 16.6992 6.44922 16.8727 6.44922C17.2227 6.44922 17.5585 6.30957 17.806 6.0625C18.0536 5.81445 18.1926 5.47852 18.1926 5.12891C18.1926 4.77832 18.0536 4.44336 17.806 4.19531C17.5585 3.94824 17.2227 3.80859 16.8727 3.80859ZM11.0013 5.35156C10.2521 5.33984 9.50793 5.47754 8.81238 5.75586C8.1167 6.03418 7.4834 6.44922 6.94946 6.97461C6.41541 7.5 5.99133 8.12695 5.7019 8.81836C5.41248 9.50977 5.26331 10.251 5.26331 11.001C5.26331 11.75 5.41248 12.4922 5.7019 13.1836C5.99133 13.874 6.41541 14.501 6.94946 15.0264C7.4834 15.5527 8.1167 15.9668 8.81238 16.2451C9.50793 16.5244 10.2521 16.6611 11.0013 16.6494C12.4844 16.627 13.8988 16.0215 14.9393 14.9648C15.9799 13.9072 16.5631 12.4834 16.5631 11.001C16.5631 9.51758 15.9799 8.09375 14.9393 7.03711C13.8988 5.98047 12.4844 5.375 11.0013 5.35156ZM11.0013 7.33301C11.974 7.33301 12.9067 7.71875 13.5945 8.40723C14.2821 9.09473 14.6685 10.0273 14.6685 11C14.6685 11.9727 14.2821 12.9053 13.5945 13.5928C12.9067 14.2812 11.974 14.667 11.0013 14.667C10.0288 14.667 9.09607 14.2812 8.40833 13.5928C7.72058 12.9053 7.33423 11.9727 7.33423 11C7.33423 10.0273 7.72058 9.09473 8.40833 8.40723C9.09607 7.71875 10.0288 7.33301 11.0013 7.33301Z" fill="#23A6F0" fill-opacity="1.000000" fill-rule="nonzero"/>
</svg>
