<svg width="16.000000" height="14.666504" viewBox="0 0 16 14.6665" fill="none" xmlns="http://www.w3.org/2000/svg" xmlns:xlink="http://www.w3.org/1999/xlink">
	<desc>
			Created with Pixso.
	</desc>
	<defs/>
	<path id="Vector" d="M15.8334 13.1665L1.5 13.1665L1.5 0.166504C1.5 0.0751953 1.42505 0 1.33337 0L0.166626 0C0.0749512 0 0 0.0751953 0 0.166504L0 14.5C0 14.5918 0.0749512 14.6665 0.166626 14.6665L15.8334 14.6665C15.925 14.6665 16 14.5918 16 14.5L16 13.3335C16 13.2417 15.925 13.1665 15.8334 13.1665ZM3 11.8335L14.1666 11.8335C14.2583 11.8335 14.3334 11.7583 14.3334 11.6665L14.3334 2.5835C14.3334 2.43311 14.1521 2.36035 14.048 2.46436L9.66663 6.8457L7.0542 4.2627C7.02283 4.23145 6.98059 4.21387 6.9364 4.21387C6.89233 4.21387 6.8501 4.23145 6.81873 4.2627L2.88123 8.2124C2.86597 8.22803 2.85388 8.24609 2.84558 8.26611C2.8374 8.28613 2.83325 8.30762 2.83337 8.3291L2.83337 11.6665C2.83337 11.7583 2.90833 11.8335 3 11.8335Z" fill="#23856D" fill-opacity="1.000000" fill-rule="nonzero"/>
</svg>
