<svg width="8.616577" height="16.000000" viewBox="0 0 8.61658 16" fill="none" xmlns="http://www.w3.org/2000/svg" xmlns:xlink="http://www.w3.org/1999/xlink">
	<desc>
			Created with Pixso.
	</desc>
	<defs/>
	<path id="@none" d="M0.180786 0.180664C0.237915 0.123535 0.305786 0.078125 0.380615 0.046875C0.455322 0.0161133 0.535522 0 0.616455 0C0.697388 0 0.777466 0.0161133 0.852295 0.046875C0.927002 0.078125 0.994873 0.123535 1.052 0.180664L8.43579 7.56445C8.49316 7.62158 8.53857 7.68945 8.56958 7.76416C8.60059 7.83887 8.61658 7.91943 8.61658 8C8.61658 8.08105 8.60059 8.16113 8.56958 8.23584C8.53857 8.31055 8.49316 8.37842 8.43579 8.43604L1.052 15.8193C0.936523 15.9351 0.779785 16 0.616455 16C0.453003 16 0.296265 15.9351 0.180786 15.8193C0.0651855 15.7041 0.000366211 15.5474 0.000366211 15.3838C0.000366211 15.2207 0.0651855 15.064 0.180786 14.9482L7.13013 8L0.180786 1.05225C0.123413 0.995117 0.0780029 0.926758 0.0469971 0.852051C0.0159912 0.777344 0 0.697266 0 0.616211C0 0.535645 0.0159912 0.455566 0.0469971 0.380371C0.0780029 0.305664 0.123413 0.237793 0.180786 0.180664Z" fill="#23A6F0" fill-opacity="1.000000" fill-rule="evenodd"/>
</svg>
