<svg width="12.939941" height="13.139160" viewBox="0 0 12.9399 13.1392" fill="none" xmlns="http://www.w3.org/2000/svg" xmlns:xlink="http://www.w3.org/1999/xlink">
	<desc>
			Created with Pixso.
	</desc>
	<defs/>
	<path id="coolicon" d="M6.47205 13.1392C3.17639 13.0957 0.515381 10.4351 0.472046 7.13916C0.515381 3.84375 3.17639 1.18262 6.47205 1.13916C9.76758 1.18262 12.4286 3.84375 12.472 7.13916C12.4286 10.4351 9.76758 13.0957 6.47205 13.1392ZM6.47205 2.47266C3.90881 2.50635 1.83911 4.57617 1.8053 7.13916C1.83911 9.70264 3.90881 11.7725 6.47205 11.8062C9.03528 11.7725 11.105 9.70264 11.1387 7.13916C11.105 4.57617 9.03528 2.50635 6.47205 2.47266ZM9.8053 7.80615L5.8053 7.80615L5.8053 3.80615L7.13867 3.80615L7.13867 6.47266L9.8053 6.47266L9.8053 7.80615ZM12 2.94482L9.99402 0.944824L10.9333 0L12.9399 2L12 2.94385L12 2.94482ZM0.943359 2.94482L0 2L1.99402 0L2.93738 0.944824L0.944702 2.94482L0.943359 2.94482Z" fill="#23A6F0" fill-opacity="1.000000" fill-rule="nonzero"/>
</svg>
